<svg xmlns="http://www.w3.org/2000/svg" height="20" viewBox="0 -960 960 960" width="20"><path d="m401.731-355.769 78.769-78.769 78.769 78.769 21.462-21.462L501.962-456l78.769-78.769-21.462-21.462-78.769 78.769-78.769-78.769-21.462 21.462L459.038-456l-78.769 78.769 21.462 21.462Zm-63.27 165.615q-22.637 0-38.088-15.45-15.45-15.451-15.45-37.91v-450.64h-47.385v-28.795h147.693v-37.667h190.154v37.539h147.692v28.923h-47.384v450.206q0 23.193-15.451 38.494-15.45 15.3-38.088 15.3H338.461Zm308.308-504H313.846v450.462q0 9.231 7.692 16.923 7.693 7.692 16.923 7.692h283.693q9.231 0 16.923-7.692 7.692-7.692 7.692-16.923v-450.462Zm-332.923 0v475.077-475.077Z"/></svg>