<svg xmlns="http://www.w3.org/2000/svg" height="20" viewBox="0 -960 960 960" width="20"><path d="M402.115-342.886 480.5-421.27l78.385 78.384 34.729-34.729L515.23-456l78.384-78.385-34.729-34.729L480.5-490.73l-78.385-78.384-34.729 34.729L445.77-456l-78.384 78.385 34.729 34.729Zm-75.383 170.808q-25.138 0-42.703-17.566-17.566-17.566-17.566-42.614v-461.319h-47.192v-47.896h166.344v-41.833h189.577v41.769h166.345v47.96h-47.192v460.885q0 25.782-17.566 43.198t-42.703 17.416H326.732Zm319.653-521.499H314.423v461.23q0 4.616 3.846 8.462 3.847 3.847 8.463 3.847h307.344q4.616 0 8.462-3.847 3.847-3.846 3.847-8.462v-461.23Zm-331.962 0v473.539V-693.577Z"/></svg>