<svg xmlns="http://www.w3.org/2000/svg" height="20" viewBox="0 -960 960 960" width="20"><path d="M359.681-210.616q-22.027 0-37.546-15.838-15.519-15.837-15.519-37.865 0-22.027 15.838-37.546 15.837-15.519 37.865-15.519 22.027 0 37.546 15.838 15.519 15.837 15.519 37.865 0 22.027-15.838 37.546-15.837 15.519-37.865 15.519Zm240 0q-22.027 0-37.546-15.838-15.519-15.837-15.519-37.865 0-22.027 15.838-37.546 15.838-15.519 37.865-15.519t37.546 15.838q15.519 15.837 15.519 37.865 0 22.027-15.838 37.546-15.838 15.519-37.865 15.519Zm-240-216q-22.027 0-37.546-15.838-15.519-15.837-15.519-37.865 0-22.027 15.838-37.546 15.837-15.519 37.865-15.519 22.027 0 37.546 15.838 15.519 15.837 15.519 37.865 0 22.027-15.838 37.546-15.837 15.519-37.865 15.519Zm240 0q-22.027 0-37.546-15.838-15.519-15.837-15.519-37.865 0-22.027 15.838-37.546 15.838-15.519 37.865-15.519t37.546 15.838q15.519 15.837 15.519 37.865 0 22.027-15.838 37.546-15.838 15.519-37.865 15.519Zm-240-216q-22.027 0-37.546-15.838-15.519-15.838-15.519-37.865t15.838-37.546q15.837-15.519 37.865-15.519 22.027 0 37.546 15.838 15.519 15.838 15.519 37.865t-15.838 37.546q-15.837 15.519-37.865 15.519Zm240 0q-22.027 0-37.546-15.838-15.519-15.838-15.519-37.865t15.838-37.546q15.838-15.519 37.865-15.519t37.546 15.838q15.519 15.838 15.519 37.865t-15.838 37.546q-15.838 15.519-37.865 15.519Z"/></svg>