<svg xmlns="http://www.w3.org/2000/svg" height="20" viewBox="0 -960 960 960" width="20"><path d="M366.77-172.078v-523.616l-67.808 68.501-34.23-34.23 126.114-126.114 126.115 126.114-34.422 33.538-67.809-67.809v308.849q32.885-38.154 73.269-58.905 40.385-20.75 84.155-20.75 17.154 0 37.193 2.134 20.039 2.135 40.039 5.52l-69.808-68.924 34.229-34.422 126.115 126.114-126.115 126.115-34.229-34.23 67.693-67.001q-17.616-3.577-35.347-5.461-17.731-1.885-33.924-1.885-56.423 0-100.808 33.096-44.385 33.097-62.462 91.52v121.846h-47.96Z"/></svg>