<svg xmlns="http://www.w3.org/2000/svg" height="20" viewBox="0 -960 960 960" width="20"><path d="M377.538-190.154v-523.23l-77.615 78.499-20.962-20.961 113.231-113.231 113.231 113.231-21.346 20.077-77.615-77.615v342.691Q437.231-417.5 478-443.25T568.308-469q23.307 0 48.634 2.519t50.327 6.289l-79.615-78.346 20.961-21.347 113.231 113.231-113.231 113.231-20.961-20.961 77.884-77q-22.231-4.154-45.442-6.423-23.211-2.27-44.596-2.27-58.346 0-104.365 35.693-46.02 35.692-64.673 98.538v115.692h-28.924Z"/></svg>