<svg xmlns="http://www.w3.org/2000/svg" height="20" viewBox="0 -960 960 960" width="20"><path d="M480-142.038 366.769-255.269l21.346-20.077 77.616 77.615v-183.438q-67-6.642-111.5-54.791-44.5-48.148-44.5-115.231 0-71.471 49.619-121.063t120.788-49.592q71.17 0 120.843 49.868t49.673 120.621q0 66.965-44.692 115.18-44.693 48.215-111.308 55.008v183.438l77.615-78.5 20.962 20.962L480-142.038Zm.129-267.808q58.948 0 100.275-41.196 41.327-41.196 41.327-100.404t-41.343-100.343q-41.343-41.134-100.404-41.134-59.061 0-100.195 41.244-41.135 41.243-41.135 100.163 0 59.4 41.263 100.535 41.264 41.135 100.212 41.135ZM480-551.577Z"/></svg>